<?xml version="1.0" encoding="utf-8"?>
<!-- Generator: Adobe Illustrator 22.0.1, SVG Export Plug-In . SVG Version: 6.00 Build 0)  -->
<svg version="1.1" id="Capa_1" xmlns="http://www.w3.org/2000/svg" xmlns:xlink="http://www.w3.org/1999/xlink" x="0px" y="0px"
	 viewBox="0 0 600 600" style="enable-background:new 0 0 600 600;" xml:space="preserve">
<style type="text/css">
	.st0{fill:#FFFFFF;}
</style>
<g>
	<path class="st0" d="M573.2,300.8c0,2.5,1.2,1.6,1.4,2C574.2,298.6,572.8,300.9,573.2,300.8z"/>
	<polygon class="st0" points="566.9,259.6 567.5,260.3 565.2,254.5 	"/>
	<path class="st0" d="M560.9,233.8l0.5,1.4c0.1,0.5,0.3,1,0.4,1.4c0.5,1.9,1,3.8,1.2,5.5l-0.2,1.2l2.4,2.7c-0.5-2-1.2-4.2-1.8-6.4
		c-0.7-2.2-1.3-4.5-2.1-6.6c-1.5-4.3-2.7-8.3-3.3-11.2c-0.5,2.1,0.5,5.4,1.9,9.1C560.3,231.9,560.6,232.9,560.9,233.8z"/>
	<path class="st0" d="M556.8,204.5c-0.3-0.8-0.7-1.9-1.4-3.7c-0.3,1.5-2.3-4,1.6,4.6C556.9,205,556.9,204.8,556.8,204.5z"/>
	<path class="st0" d="M556.8,204.5C558.4,208.4,556.5,201.8,556.8,204.5L556.8,204.5z"/>
	<path class="st0" d="M551.8,191.8c0-1.2-1.9-5.7-0.9-4.2c-2.7-5-2.6-3.7-2.1-0.4L551.8,191.8z"/>
	<path class="st0" d="M545.3,183.1c0.5,0.8,1,1.6,1.5,2.4C546.8,185,546.6,184.3,545.3,183.1z"/>
	<path class="st0" d="M548.2,187.9c-0.8-0.2,0.3,0.6,1.7,2.8l-3.1-5.2C546.8,186.4,546.2,186.7,548.2,187.9z"/>
	<path class="st0" d="M552,197.8c0,0.7-0.3,0.4-1.7-1.9c2.1,4.7,3.3,6.6,3.5,6.1c0.1-0.2,0-1.1-0.5-2.5c-0.4-1.4-1.1-3.3-2.3-5.6
		C551.4,195.4,551.9,197,552,197.8z"/>
	<path class="st0" d="M555.3,220.7c0.2,1.3,0.5,2.6,0.6,4l1.6,3.1c-0.4-0.8-0.8-2.7-1.2-4.3C556,221.9,555.6,220.5,555.3,220.7z"/>
	<path class="st0" d="M533.6,156.7c-0.6,0,0,2.2-0.3,2.8c0.9,1,1.7,2.1,2.5,3.2C535.1,160.7,533.2,157.3,533.6,156.7z"/>
	<path class="st0" d="M533.3,159.5l-3.9-4.6C532.2,159.5,533.1,160.1,533.3,159.5z"/>
	<polygon class="st0" points="544.2,185.3 545.6,187.4 548.4,191.5 545.2,186.5 544.4,185.3 543.6,184.1 541.9,181.6 542.7,183.3 	
		"/>
	<path class="st0" d="M523.5,139.8l-2.4-2l-2.5-1.9l2.1,1.8C521.6,138.3,522.6,139,523.5,139.8z"/>
	<path class="st0" d="M511,125.7c2.3,1.4-1.2-3.6,1-1.9c-2.9-3.1-5.7-5.3-8.4-7.2C506.2,118.9,508.4,121.7,511,125.7z"/>
	<path class="st0" d="M499.2,113.4c1.3,1.1,2.8,2.1,4.4,3.2C502.2,115.4,500.8,114.4,499.2,113.4z"/>
	<path class="st0" d="M522.6,144.4c0.4,0.6,0.9,1.3,1.4,1.9c0-0.5,0-1.7-1.7-4.6L522.6,144.4z"/>
	<path class="st0" d="M522.6,144.5L522.6,144.5c-1.5-2.2-2.5-3.7-2.9-4.3C520,140.7,520.9,142,522.6,144.5z"/>
	<path class="st0" d="M524.3,146.8c-0.1-0.2-0.2-0.3-0.3-0.5C524,146.6,524,146.7,524.3,146.8z"/>
	<path class="st0" d="M532.4,167.1c2,1.7,0.5-2.1,4.1,1.9C534.1,166.3,529.8,160.4,532.4,167.1z"/>
	<path class="st0" d="M529.1,155.3c-1.5-1.7-2.9-3.5-4.5-5.2c1.1,1.8,2.1,3.6,3.2,5.5C528.1,155.3,527.9,154,529.1,155.3z"/>
	<polygon class="st0" points="522.5,147.8 524.6,150.1 523.4,148.1 	"/>
	<path class="st0" d="M506.1,124.4c0.6,0.1,2.2,0.8-0.4-2.1c-1.1-0.9-2.2-1.8-3.2-2.9c-1.1-1.1-2.2-2.2-3.4-3.4
		c1.1,1.4,2.4,2.8,3.6,4.2C503.7,121.6,504.9,123,506.1,124.4z"/>
	<path class="st0" d="M514.1,132.9c-0.1-0.1-0.3-0.3-0.4-0.4C513.8,132.8,514,133.1,514.1,132.9z"/>
	<path class="st0" d="M474.7,93c0.1,0.2,0.2,0.3,0.3,0.5c0.1,0,0.1-0.1,0.2-0.1L474.7,93z"/>
	<path class="st0" d="M506.3,125c1.6,2.2,2.9,3.3,4.2,4.2c-1.4-1.5-2.9-3-4.4-4.8C505.8,124.3,505.7,124.4,506.3,125z"/>
	<path class="st0" d="M492.2,107.1c0.4,0.6,0.9,1.2,1.4,1.8c0.5,0.6,1,1.3,1.5,2c-0.3-0.6-0.9-1.6-1.4-2.4
		C493,107.8,492.5,107.2,492.2,107.1z"/>
	<path class="st0" d="M513.4,131.5c0.1,0.1,0.2,0.2,0.3,0.3C513.3,130.9,513.3,131.1,513.4,131.5z"/>
	<path class="st0" d="M513.7,132.5c-0.1-0.3-0.2-0.7-0.3-0.9c-1-1-1.9-1.7-2.9-2.4C511.6,130.4,512.7,131.5,513.7,132.5z"/>
	<path class="st0" d="M482.3,99.8l1.2,1.1l1.1,1.1l-0.8-0.5l2,1.7c-1-1.1-1.8-2.1-2.6-3.2c-0.9-1.1-1.8-2.3-2.9-4
		c-3.7-2.4-4.6-2.6-5.1-2.5l4.8,4.2L482.3,99.8z"/>
	<path class="st0" d="M489.1,106.4c0.7,0.6,1.4,1.3,2.3,2.1c0.4,0.4,0.9,0.8,1.4,1.2c0.5,0.5,0.9,0.9,1.5,1.4
		c-0.6-0.1-1.3-0.5-2-0.9c-0.8-0.4-1.5-0.8-2.2-1.1c-1.3-0.6-2.1-0.6-1.2,1.2c0.7,0.6,1.3,1.2,1.8,1.6s0.9,0.8,1.3,1.1
		c0.7,0.6,1.2,0.9,1.7,1.1c0.9,0.5,1.5,0.6,3.3,2c-8.6-8.6,2.9,2-2.6-4.9c1.8,1.6,3.4,3.1,4.8,4.6c-1.4-1.7-2.7-3.4-4-5
		c0.1,0.1,0.1,0.2,0.1,0.3l0,0l0,0c0.3,0.5,0.3,0.7,0,0.2c0,0-0.1-0.1-0.2-0.2c-0.2,0.1-0.5,0-0.7-0.1c-2.3-2.8-0.1-0.6,0.7,0.1
		c0.1,0,0.2,0,0.2,0l0,0c-0.8-0.7-1.5-1.4-2.3-2.1l-2.3-2l-4.7-4C486.8,104.1,487.8,105.2,489.1,106.4z"/>
	<path class="st0" d="M526.7,163c-0.1-0.4,0-0.4,0-0.5C526.2,161.9,525.9,161.7,526.7,163z"/>
	<path class="st0" d="M524.1,152.2c0-0.2,0-0.3,0-0.5C524,151.6,524,151.8,524.1,152.2z"/>
	<path class="st0" d="M528.4,162.2l-0.6-0.6c-1.8-3.4-3.4-7.9-3.7-9.4c-0.1,1.7-0.1,3.2,0.6,6.2c0.6,0.6,1.5,1,2.9,3.4
		c1,2.3-0.5,0.3-0.8,0.6C528,163.7,530.7,167.1,528.4,162.2z"/>
	<path class="st0" d="M505.8,131.4l0.3-0.6c0.9,1.1,1.5,1.9,2,2.4s0.8,0.8,1,0.9c0.5,0.2,0.7-0.1,1.1,0c-2.2-2.6-4.6-4.9-7-7.3
		L505.8,131.4z"/>
	<path class="st0" d="M476.1,91.6c-1.9-0.8-3.9-1.5-5.8-2.2l3.9,2.4L476.1,91.6z"/>
	<path class="st0" d="M464.8,83c-1.1-0.5-2.2-1-3.3-1.5l2.2,2.1L464.8,83z"/>
	<path class="st0" d="M148,73.8l1.9,0.4c2.5-1.8,4.5-3,6.3-3.8C151.9,71.8,146.8,73,148,73.8z"/>
	<path class="st0" d="M338.9,32.6c-3.7-1-6.6-1.6-9.3-2C334.1,31.9,337.5,33.5,338.9,32.6z"/>
	<path class="st0" d="M61.2,434.3c1.1,1.5,1.7,2,2,1.8C62,434.6,61.3,433.8,61.2,434.3z"/>
	<path class="st0" d="M329.6,30.6c-1.6-0.5-3.4-0.8-5.3-1c-1.8-0.2-3.7-0.2-5.6,0.1c0.7,0.2,1.3,0.3,2,0.5c1.4,0,2.8,0,4.2,0.1
		C326.4,30.3,327.9,30.3,329.6,30.6z"/>
	<path class="st0" d="M568.6,344.1c0.2-0.9,0.4-2.4,0.5-5.1C569.1,340.2,568.8,342.2,568.6,344.1z"/>
	<path class="st0" d="M418.1,55.4C420.7,56.6,418.6,55.5,418.1,55.4L418.1,55.4z"/>
	<path class="st0" d="M426.7,66.3c0.4-0.2,0.8-0.2,1.3-0.1C427.4,66.1,426.9,66,426.7,66.3z"/>
	<path class="st0" d="M421.7,57.9c-0.9-0.6-1.9-1.3-3-2C419.1,56.2,420,56.9,421.7,57.9z"/>
	<path class="st0" d="M421.4,57.1c0.8,0.5,1.5,0.9,2.1,1.2C424,58.3,423.8,58,421.4,57.1z"/>
	<path class="st0" d="M418.1,55.4c-0.8-0.3-1.8-0.8-3.6-1.6c1.5,0.6,2.8,1.3,4.1,2C418.2,55.6,418,55.4,418.1,55.4z"/>
	<path class="st0" d="M464.8,519.4c0.1,0,0.3-0.1,0.5-0.1C465.1,519.3,465,519.4,464.8,519.4z"/>
	<path class="st0" d="M570.1,319.1c0.2-2,0.2-4,0.1-5.6c-0.1-1.6-0.3-2.8-0.8-3.2l0.2,5c-1-3.3-2.3-1.1-3.8,1.8
		c-0.1,0.3-0.3,0.6-0.4,0.8c0.3-5,0.4-10.1,0.4-15.2c0-76.2-32.1-144.9-83.4-193.4c0,0,0,0,0.1,0l0.3-0.7c-2.3-2.2-4.3-3.5-3.2-2.1
		c-2-1.8-4-3.6-6.1-5.4c4.3,2.3,3.9-2.9,1.4-7.8c-0.5,0.3-0.7,0.5-6.1-2.7c0.6,0.9,3.2,3.3,4.8,5.3c1.6,2,2.5,3.4,0.2,2.1
		c-1.7-1.2-2.8-2.2-3.6-2.8c-0.8-0.7-1.3-1.2-1.7-1.6c-0.7-0.9-1-1.6-2.4-3.1c0.9,1.6-1.5,0.4-4.1-0.8c-1.9-1-4.1-1.8-5-1.6
		c-3.3-2.4-6.7-4.8-10.1-7.1l-0.4-2l-2.6-0.2l2.9,2.2c-10.2-6.7-20.8-12.7-31.9-18c0.3,0,0.4-0.2-0.1-0.6l-4.3-1.7
		c-3.3-2.9,8.6,1.9,3.6-1c0.8,0.2,1.5,0.4,2.3,0.6c0.8,0.2,1.6,0.5,2.3,0.8c1.6,0.5,3.2,1.1,4.9,1.8c1.7,0.7,3.5,1.4,5.2,2.3
		c1.7,1,3.5,2,5.3,3.3l0.5,2.4c0.1-0.6-4.4-3.8-6.8-4.5c1.8,0.5,4.4,2.8,7.1,4.8c1.4,1,2.8,2,4.1,2.8c1.3,0.8,2.6,1.3,3.7,1.3
		c-1.5-1.4-3-3-4.5-4.3c1.5,0.6,3,1.2,4.7,1.9c1.6,0.7,3.3,1.4,5,2.2c1.7,0.8,3.5,1.6,5.1,2.6s3.2,2.1,4.8,3.4
		c-1.9-3.5-1.6-0.9-5-5.8c1.3,2.4-2.9-0.3-6.8-2.9c-2-1.3-3.8-2.5-4.9-2.9c-1-0.4-1.3-0.2-0.5,0.8c-1.7-2.2-3.6-3.5-5.6-4.9
		c-2.2-1.5-4.7-3.2-7.6-5.8c-0.1,0.6,1.8,2.2-3.9-1c-0.3,0-1.1-0.1-1.5-0.2c-0.2-0.1-0.2-0.1-0.4-0.2c0.1,0.1,0.2,0.1,0.3,0.2
		c-0.3,0-0.3,0,0.1,0.1c1.3,1,2.3,1.8,2.6,2.4c-1.8-0.1-4.9-1.4-8.2-2.7c-3.3-1.2-6.5-2.5-8.2-2.9c-3.4-1.9,1.8,0,0.1-1.4l-2.6-0.6
		l-2.7-0.5c0.1-1.4-8.8-5.9,0.1-3.2l-7.7-3.1c-1.1-0.7-2.3-1.2-3.6-1.8c-1.3-0.6-2.6-1.1-3.9-1.6c-2.7-1-5.2-1.9-7.3-2.2
		c-3.7-1.4-10-1.3-6.4-1.4c-2.1-0.4-4.3-0.9-6.4-1.4l-6.4-1.1v-0.4c-6.2-1.7-12.9-2.1-19.6-3.1c-6.8-0.6-13.8-1.6-21-3.3
		c-2.2,0-4.4,0-6.9-0.1c-2.6,0-5.5,0-9.1-0.3l-1.4-1.2c-2.8,0.1-7-0.1-10.8-0.2s-7.2-0.1-8.4,0.6c-1.5-0.7-4-0.9-7-0.9
		c-1.5,0-3.1,0.1-4.8,0.2c-1.7,0.1-3.5,0.4-5.3,0.7c-1.8,0.3-3.6,0.6-5.4,0.8c-1.8,0.3-3.6,0.6-5.3,0.9c-3.4,0.7-6.5,1.3-9,1.6
		l-0.1,1.6c-0.8,0.1-1.7,0.3-2.5,0.4c-0.8,0.2-1.6,0.4-2.4,0.6c-1.6,0.4-3.3,0.9-5,1.3c-1.7,0.5-3.4,1-5.2,1.5
		c-1.8,0.6-3.6,1.3-5.6,2l0.9,1.2c-3.3,1.5-7.8,2.4-12.7,3.8c-2.5,0.6-5.1,1.3-7.8,2.1c-2.6,0.8-5.3,1.8-7.9,2.9
		c0.5-0.8,3.3-1.7,5.3-2.2c-3.4,0.5-6.8,1.6-10,2.9c-3.2,1.4-6.3,3.2-9.4,4.9c-3.1,1.7-6,3.7-8.9,5.3s-5.9,3-8.8,4.1
		c-2.4,2-4.4,2.9-6.5,3.7c0.2-0.1,0.5-0.3,0.6-0.4c-0.3,0.1-0.7,0.4-1.1,0.6c-0.6,0.2-1.3,0.5-2,0.7c-0.7,0.3-1.3,0.6-2,0.9
		c1.3-0.4,2.4-0.9,3.4-1.3c-2,1.2-4.9,3.4-7.7,5.5l-2.1-0.4c-0.2,0.2-0.4,0.3-0.7,0.5c-3.2,1.4-2,2.1,0.2,2
		c-1.4,1.1-2.5,2.3-3.3,3.3c-1.8-0.2-3.6,1.3-5.4,2.9c-0.9,0.8-1.9,1.6-2.9,2.2s-2,1.1-3.2,1.2c-0.6,1.2-3.9,4.1-7,7.1
		c-2.6,2.7-5,5.4-5.6,7.1c-3.1,2.2-6.1,4.7-8.1,7.6l-2.5-0.2l-2.2,3.8l-2,3.9c-4.3,2.9-6.3,4.1-3.8-0.6c-1.7,2.6-3,4.4-4,5.8
		c-0.9,1.4-1.7,2.4-2.3,3.3c-1.3,1.9-2.6,3.5-5.1,8.2l-0.6-1.2c-2.3,3-4.7,8.7-6.9,9.9c-1.7,1.3-4,4.2-6.9,7.8
		c-0.7,0.9-1.5,1.9-2.2,2.9c-0.7,1.1-1.4,2.2-2.2,3.3c-1.5,2.3-3.1,4.7-4.7,7.3c-6.2,10.4-12.6,22.5-17.8,32c2.5-1.2,1,0.9-0.6,3.6
		c-1.6,2.7-3.5,6.1-2.4,6.9c-1.2,0.9-2.8,3.5-2.2,0c-0.4,1.3-0.8,2.6-1.3,3.7c-0.4,1.2-0.8,2.3-1.1,3.3c-0.8,2.1-1.5,3.9-2.2,5.7
		c-0.6,1.8-1.3,3.4-1.6,5.2c-0.4,1.7-0.6,3.6-0.5,5.6c-1.1,1-0.5-2.6-1.3-1.7c-0.1,0.9-0.3,3.6-1.1,4.6s-0.2-1.8-0.1-3.6
		c-0.7,2.8-1.2,4.9-1.4,6.7c-0.1,1.8,0,3.1,0.3,4.1c0.5,2,1.6,2.7,2.7,3.4c-1.2,2.6-1.9,4.7-2.2,6.6c-0.2,1.9-0.1,3.7,0.3,5.9
		c-1.1,1.8-2.5,4.9-1.6-2c-0.2,1-0.6,2.9-1.1,5.3c-0.2,1.2-0.5,2.5-0.8,3.9c-0.2,1.4-0.4,2.8-0.6,4.2c-0.7,5.5-1.2,10.7-0.2,10.9
		c-0.6,1.2-0.6,5.5-0.4,6.5c-0.2,2.2-0.4,3.9-0.5,5.3s-0.1,2.6-0.2,3.8c-0.1,2.4-0.2,4.7-0.2,9.1l0.4-2.4c2.1,3.4,0.5,7.2,1,14.1
		l-0.2-0.2c-0.4,4-0.3,6.4-0.2,8.1c0.1,1.6,0.2,2.5,0.4,3.3c0.1,0.8,0.3,1.7,0.4,3.3c0,1.6,0.1,4,0.1,8l1.3-1c1.6,0.5,1.6,4,1.5,8.5
		c0,4.5,0.1,10,1.5,14.4c0-1.1,0.1-2.3,0.2-3.4c0.9,2.4,0.7,5.9,0.3,9.6s-1.1,7.5-0.5,10c0.1,1.1-0.9-1.6-1.5-3
		c1.8,13.3,2.3,1.2,5.4,10.6c-0.2,1-1,0.6-1.5,0.8c-0.3,0.1-0.4,0.3-0.5,0.9c0,0.6,0.1,1.6,0.6,3.2c0.2,1.7,2.5,6.1,4.9,11.1
		c1.3,2.5,2.7,5.1,3.8,7.7c0.6,1.3,1.1,2.6,1.5,3.8c0.5,1.2,0.8,2.4,1.1,3.6c-0.1-2.1-0.2-4.2,2.2-0.3c0.8,1.6,1.5,3.5,2.2,5.6
		c0.4,1,0.7,2.2,1.1,3.2c0.4,1.1,0.8,2.2,1.2,3.3c0.9,2.2,1.8,4.3,2.8,6.2c0.5,0.9,1,1.8,1.6,2.6c0.6,0.8,1.2,1.4,1.9,1.9
		c0.3,0.9,0.2,1.3,0.1,1.4c0.8,1.1,1.8,2.5,2.9,4.1s2.3,3.4,3.5,5c2.5,3.3,4.9,6.2,6.3,7.2c-0.4,1.8,0.8,4.2,2.7,7
		c1.9,2.8,4.4,5.9,7.1,8.7c1.3,1.4,2.6,2.8,3.8,4.1c1.2,1.3,2.2,2.5,3.1,3.5c1.7,2.1,2.6,3.6,1.7,4.4c1.8,2,3.6,4.1,5.5,6.1l5.8,5.9
		h-0.6c0.9,1,1.7,1.9,2.5,2.7c0.8,0.8,1.6,1.5,2.3,2.1c1.4,1.3,2.7,2.2,3.8,3c2.2,1.6,3.9,2.5,5.7,3.3c1.6,1.8,0,1-0.3,1
		c5.5,5.4,8.5,8.4,11.8,10.5c1.6,1.1,3.2,2.1,5.1,3.2c1,0.5,2,1.2,3.2,1.7c1.2,0.6,2.5,1.2,4,1.9l0.2,2c0.8,0.3,2.3,1.4,4.2,3
		c1,0.8,2.1,1.6,3.3,2.6c1.2,0.9,2.6,1.9,4,3c1.4,1,2.9,2.1,4.5,3.2c1.6,1,3.3,2.1,5,3.1s3.4,2,5.2,2.9c1.7,0.9,3.6,1.6,5.3,2.3
		c-0.2,0.1-0.6,0.2-1.8-0.2c7.9,3.2,16.7,8.5,24.7,12.3c2,0.9,4,1.8,5.8,2.6c0.9,0.4,1.8,0.8,2.7,1.1s1.7,0.5,2.6,0.8
		c3.3,0.9,6,1.1,7.9,0.3l2.8,0.6c0.9,0.2,1.9,0.3,2.8,0.5l5.5,0.9c-6.9-2.2-6.2-2.6-4.5-2.8s4.4-0.1,1.7-1.4c2.7,0.6,6.1,2,8,3
		c0.9,0.5,1.5,0.9,1.4,1.1c-0.1,0.2-0.9,0.2-2.6-0.2l-1-0.6c-0.8,0.5-0.1,1.1,1.3,1.8c1.4,0.7,3.7,1.2,6,1.8s4.7,1.2,6.4,1.7
		c1.7,0.6,2.9,0.9,2.7,1.4c3.5,0.6,7,1.2,10.5,1.9c3.5,0.6,7,1,10.5,1.5c1.7,0.2,3.5,0.6,5.2,0.7c1.7,0.2,3.5,0.3,5.2,0.5
		s3.5,0.4,5.2,0.5c0.9,0.1,1.7,0.2,2.6,0.3l2.6,0.1c3.5,0.2,6.9,0.4,10.4,0.6c3.4,0.1,6.9,0,10.3,0c1.7,0,3.4,0,5.1-0.1
		s3.4-0.2,5.1-0.3s3.4-0.2,5.1-0.3l2.5-0.2c0.8-0.1,1.7-0.2,2.5-0.3c-1.1-0.6-2.2-1.2-3.3-1.8c3.1-0.2,6.2-0.7,9.2-1
		c2.5,0.2,3.5,1.3-3.1,2c1.8,0.4,4.6-0.2,6.9-1c1.1-0.4,2.2-0.8,2.9-1.2c0.7-0.4,1.2-0.7,1.2-0.8c6.5-0.7,5.3,0.1,3.1,1.1
		c-2.3,1-5.7,2-3.7,1.7l5.3-1.1h-1.3c2.1-0.8,3.2-1.5,4.8-2.1c0.8-0.3,1.7-0.6,2.9-0.9c1.2-0.4,2.7-0.7,4.6-1.2
		c5-0.7,2.8,0.7,4.8,0.4c0,0.2,0.7,0.1,3-0.6c3.8-0.9,7.6-2,11.4-3l-5-0.4c2.4-1.1,5-1.9,6.4-2.4c0.7-0.2,1-0.5,0.8-0.6
		s-0.9-0.2-2.3-0.3c4.2,0.3,14.7-2.8,24.5-6.9c2.5-0.9,4.8-2.1,7.1-3.1c2.3-1,4.4-2,6.3-2.9c3.8-1.8,6.5-3.3,7.8-3.6
		c1.5-1.1,3-2.1,4.5-3.1s3.1-2.1,4.7-3.1c3.2-2,6.8-3.9,10.5-6.3c-2.1,0.9-4.2-0.1,2.3-4c0,1.2,0.7,1.4,2,1.1
		c1.3-0.4,3.1-1.3,5.1-2.5s4.2-2.6,6.3-3.8c1.1-0.6,2.1-1.1,3.1-1.6c0.8-0.4,1.5-0.7,2.2-0.9c-1.7,0.3,2.2-2.9,5.8-6
		c2-1.6,3.7-3.4,4.4-4.4c0.8-1,0.6-1.4-1.5-0.5c5-3.9,1.3,0.9,5.6-1.6c1.3-1.4,2.7-2.7,4.1-4.2c1.4-1.4,2.9-2.9,4.4-4.3
		s3.1-2.9,4.7-4.3c1.5-1.5,3.1-3,4.7-4.6s3.3-3.1,4.8-4.7c1.6-1.7,3.1-3.3,4.7-5c0.8-0.9,1.6-1.7,2.4-2.6l1.2-1.3l1.1-1.4
		c1.5-1.8,2.9-3.7,4.3-5.6c-0.2-0.5-2.8,1.4-1-2.2c2.8-2,5.3-4.3,8-6.5c1-1.6,0.9-2.7,1.2-4c0.2-0.7,0.4-1.3,1-2.1
		c0.5-0.8,1.3-1.8,2.6-3c-0.9,0.6-2.2,1.4-1-0.8c11.2-14.7,19.5-31.9,26.1-49.7c6.6-17.8,11.6-36,17-54.2c-1.9,4.9-1.4,1.5-0.8-2.3
		c-0.7,2.5-1.3-0.3-2.1,0.1c0.7-2.5,1.3-5.1,2-7.6l1-3.8c0.3-1.3,0.7-2.6,0.9-3.9C569.5,327.4,569.8,323.2,570.1,319.1z M466.3,95
		c1.1,0.7,2.3,1.5,3.4,2.5c0.9,0.8,1.8,1.8,2.6,2.8c-2.5-2.1-5-4.2-7.6-6.2C465.2,94.3,465.7,94.6,466.3,95z M462.8,92.6L462.8,92.6
		c-0.1,0-0.2-0.1-0.3-0.2C462.7,92.5,462.8,92.5,462.8,92.6z M389.1,44.8c-0.1,0-0.2,0-0.2,0C384.7,42.8,386.1,43.6,389.1,44.8z
		 M341.9,37.6c2.7,0,5.7,0.2,8.9,0.4c2.5,0.3,4,0.6,4.9,0.9c0.9,0.3,1.1,0.6,1.1,0.8c0,0.4-1.1,0.7-0.2,0.7c4.6,1.2,7.9,1.7,10.6,2
		c2.6,0.4,4.6,0.4,6.5,0.4c1.9,0.1,3.7,0.1,5.9,0.6c2.2,0.4,4.9,1.4,8.5,3.1c5.4,3.5-0.8,3.1,0.1,4.7c-4-1-6.8-2.3-9.4-3.4
		c-2.6-1.1-4.9-2.1-7.5-2.9l6.3,2.6c-2.7-0.2-8-1.3-10.7-2.5c0.5,0.3,1.3,0.7,2.2,1c-12.1-3.2-24.5-5.7-37.3-7.2
		c0.9-0.2,1.9-0.5,3.1-0.6C336.9,37.9,339.3,37.6,341.9,37.6z M286.6,36.3c0.8-0.2,1.7-0.3,2.5-0.4c-0.3,0.4,0.6,0.9,1.3,1.2
		c-2.6,0.1-5.2,0.2-7.8,0.4c0.5-0.2,1-0.4,1.6-0.5C284.9,36.7,285.8,36.4,286.6,36.3z M234.8,40.8c0.5,0,4.3-0.3,8.3-0.6
		c1-0.1,2-0.1,3-0.2c1,0,2,0,2.9,0c1.8,0,3.3,0.1,4.2,0.3c0.5,0.1,0.9,0.3,1.1,0.4c-3.2,0.6-6.4,1.2-9.6,1.8l-0.7-2.2l-0.7,2.5
		c-3.1,0.7-6.3,1.4-9.4,2.2C233.6,43.4,233.8,41.8,234.8,40.8z M183.9,59.6c1.2-0.9,2.4-1.7,3.6-2.4h2.5c2.6-1.6,5.1-3.2,7.8-4.6
		c-1.8,1.8-4.9,5-8.4,8.4c-4.5,2.1-8.9,4.3-13.3,6.6c1.3-1.6,2.9-3.4,4.6-5C181.7,61.5,182.8,60.5,183.9,59.6z M121.9,100.5
		c-0.1,0.3-0.1,0.6-0.1,0.8C121.4,101.1,120.6,101.6,121.9,100.5z M108.6,118.3c-1.5,1.6-3.1,3.2-4.6,4.9c0.8-2.2,1.7-4.4,2.7-6.6
		C106.7,117.4,107.6,117.8,108.6,118.3z M37.5,249.9c0.1-1.9,0.5-3.7,0.7-5.5c0.6-1.2,1,0,1.4,1.9c0-0.8,0-1.5,0-2.1
		c0.6-1.4,1-1.9,1.4-1.9c-0.4,1.8-0.8,3.5-1.2,5.3c-0.1-0.5-0.2-0.9-0.2-1.3c0,0.8,0,1.7-0.1,2.7c-0.2,0.8-0.3,1.7-0.5,2.5
		c-0.8,1.6-1.6,3-2,4L37.5,249.9z M365.1,566.6h-1.9C367.2,565.3,366.1,565.9,365.1,566.6z"/>
	<path class="st0" d="M443.2,69.3c0.1-0.3-0.5-1.1,0.4-0.7c-1.6-0.9-3.3-1.7-4.9-2.5C441.3,67.5,442.1,68.3,443.2,69.3z"/>
	<path class="st0" d="M443.6,68.6c0.2,0.1,0.4,0.2,0.6,0.3C443.9,68.8,443.8,68.7,443.6,68.6z"/>
	<path class="st0" d="M451.7,78.9c-1.3-0.9-3.3-1.8-5.4-2.8c-0.1,0.6,0.7,1.4,1.9,2.2c0.6,0.4,1.4,0.9,2.2,1.3
		c0.8,0.5,1.7,1.1,2.6,1.6c-0.2-0.1-0.4-0.3-0.6-0.4C453.5,80.5,453,79.8,451.7,78.9z"/>
	<path class="st0" d="M457.1,84c0.8-0.3-1.2-1-3.2-2.2C455,82.5,456.1,83.2,457.1,84z"/>
	<path class="st0" d="M409.3,52.5c1.7,1.1,1.8-0.9,2.6,0c1.4-0.2-1.9-1.2-4.2-1.6c-1.1-0.2-2.1-0.2-2,0
		C405.7,51.1,406.7,51.6,409.3,52.5z"/>
	<path class="st0" d="M419,63.8l5.8,3.4c0-0.3,0.9,0,1.8,0.4C423,65.7,419.1,63.3,419,63.8z"/>
	<path class="st0" d="M431.4,70c-1-0.6-3.2-1.8-4.8-2.4C428.5,68.6,430.3,69.6,431.4,70z"/>
	<path class="st0" d="M347.8,40.9c1.8,0,4.5,0.2,3.5-0.5l-7.3-0.9C343.2,40,345.1,40.6,347.8,40.9z"/>
	<path class="st0" d="M572.8,318.5c0.4-1.9,0.6-3.8,0.9-5.7l-1.1,3.6C572.6,317.1,572.7,317.8,572.8,318.5z"/>
	<path class="st0" d="M572.9,306.2l-1.7-3.4c0.1,1.3,0.2,3.8-0.3,4.7L572.9,306.2z"/>
</g>
</svg>
